<svg xmlns="http://www.w3.org/2000/svg" height="40" viewBox="0 -960 960 960" width="40" fill="#ffb767"><path d="M149.058-153.304q-30.994 0-53.374-22.714-22.38-22.713-22.38-53.04v-501.884q0-30.393 22.38-53.153 22.38-22.76 53.374-22.76h261.993l69.616 69.775h330.275q30.393 0 53.153 22.713 22.76 22.713 22.76 53.04v432.269q0 30.327-22.76 53.04-22.76 22.714-53.153 22.714H149.058Zm408.55-129.326h106.668q22.222 0 37.777-15.556 15.556-15.555 15.556-37.778v-182.029h40v-53.334H650.942v-36.666h-80v36.666H464.275v53.334h40v182.029q0 22.223 15.555 37.778 15.556 15.556 37.778 15.556Zm0-235.363h106.668v182.029H557.608v-182.029Z"/></svg>